<svg xmlns="http://www.w3.org/2000/svg" viewBox="0 0 512.000 512.000" width="512" height="512">
<rect x="0.000" y="0.000" width="512.000" height="512.000" rx="113.459" ry="113.459" fill="#f1641e"/><g transform="translate(138.3059,117.7600) scale(0.571330)"><g transform="translate(0.000000,466.000000) scale(0.100000,-0.100000)" fill="#ffffff" fill-rule="nonzero"><path d="M3790 4649 c-382 -25 -904 -31 -2150 -25 -718 4 -1372 10 -1455 14
-82 4 -152 6 -155 5 -7 -6 -24 -252 -18 -258 3 -3 63 -15 134 -26 242 -37 365
-80 404 -144 12 -19 29 -72 38 -117 15 -76 17 -229 17 -1708 -1 -1901 0 -1885
-86 -1971 -47 -47 -179 -90 -364 -119 -77 -12 -142 -23 -145 -25 -7 -4 14
-252 22 -260 3 -3 99 -1 214 6 316 17 2534 24 3044 9 228 -6 468 -15 532 -18
l118 -7 5 40 c3 22 17 137 31 255 50 429 65 549 100 794 19 137 37 260 40 275
l6 27 -138 12 c-76 6 -141 8 -145 4 -3 -4 -16 -41 -29 -82 -41 -138 -121 -344
-190 -485 -131 -272 -255 -386 -480 -444 -151 -38 -288 -46 -855 -46 -632 0
-695 6 -802 78 -57 39 -97 111 -114 207 -7 43 -13 324 -16 818 l-5 752 208 2
c418 4 746 -3 839 -18 161 -26 237 -83 285 -211 22 -57 53 -177 85 -324 l16
-77 132 5 c73 3 133 6 134 7 1 1 -3 66 -8 146 -13 192 -13 1033 0 1234 6 88 9
161 8 163 -2 1 -63 4 -136 5 l-133 3 -24 -115 c-51 -246 -107 -376 -183 -427
-41 -28 -112 -50 -201 -64 -100 -15 -518 -23 -782 -14 l-238 7 1 687 c1 377 4
772 8 876 l6 190 65 7 c36 4 325 11 642 14 772 9 997 -6 1143 -74 169 -80 206
-160 338 -737 l22 -100 136 -3 136 -3 6 298 c6 307 19 560 41 813 7 80 10 147
7 150 -3 3 -53 3 -111 -1z"/></g></g>
</svg>
