<svg xmlns="http://www.w3.org/2000/svg" viewBox="0 0 433.434 120.000" width="433" height="120">
<rect x="0.000" y="0.000" width="120.000" height="120.000" rx="26.592" ry="26.592" fill="#f1641e"/><g transform="translate(32.4155,27.6000) scale(0.133906)"><g transform="translate(0.000000,466.000000) scale(0.100000,-0.100000)" fill="#ffffff" fill-rule="nonzero"><path d="M3790 4649 c-382 -25 -904 -31 -2150 -25 -718 4 -1372 10 -1455 14
-82 4 -152 6 -155 5 -7 -6 -24 -252 -18 -258 3 -3 63 -15 134 -26 242 -37 365
-80 404 -144 12 -19 29 -72 38 -117 15 -76 17 -229 17 -1708 -1 -1901 0 -1885
-86 -1971 -47 -47 -179 -90 -364 -119 -77 -12 -142 -23 -145 -25 -7 -4 14
-252 22 -260 3 -3 99 -1 214 6 316 17 2534 24 3044 9 228 -6 468 -15 532 -18
l118 -7 5 40 c3 22 17 137 31 255 50 429 65 549 100 794 19 137 37 260 40 275
l6 27 -138 12 c-76 6 -141 8 -145 4 -3 -4 -16 -41 -29 -82 -41 -138 -121 -344
-190 -485 -131 -272 -255 -386 -480 -444 -151 -38 -288 -46 -855 -46 -632 0
-695 6 -802 78 -57 39 -97 111 -114 207 -7 43 -13 324 -16 818 l-5 752 208 2
c418 4 746 -3 839 -18 161 -26 237 -83 285 -211 22 -57 53 -177 85 -324 l16
-77 132 5 c73 3 133 6 134 7 1 1 -3 66 -8 146 -13 192 -13 1033 0 1234 6 88 9
161 8 163 -2 1 -63 4 -136 5 l-133 3 -24 -115 c-51 -246 -107 -376 -183 -427
-41 -28 -112 -50 -201 -64 -100 -15 -518 -23 -782 -14 l-238 7 1 687 c1 377 4
772 8 876 l6 190 65 7 c36 4 325 11 642 14 772 9 997 -6 1143 -74 169 -80 206
-160 338 -737 l22 -100 136 -3 136 -3 6 298 c6 307 19 560 41 813 7 80 10 147
7 150 -3 3 -53 3 -111 -1z"/></g></g><g transform="translate(156.0000,16.8000) scale(0.468639)"><g transform="translate(0.000000,169.000000) scale(0.100000,-0.100000)" fill="#1c1c1c" fill-rule="nonzero"><path d="M4174 1676 c-99 -19 -136 -32 -229 -79 -154 -80 -275 -235 -320 -412
-19 -76 -19 -241 0 -324 56 -234 253 -417 504 -467 64 -13 117 -15 225 -11
161 5 263 28 365 80 l64 32 -2 152 c-3 204 9 231 106 251 35 7 38 10 38 42 l0
35 -265 -4 c-146 -2 -266 -4 -267 -5 -2 -2 -5 -16 -9 -32 l-6 -29 83 -12 c70
-9 87 -15 106 -37 22 -26 23 -35 23 -170 0 -161 0 -162 -80 -192 -61 -22 -223
-30 -291 -14 -81 19 -168 68 -230 130 -67 69 -100 123 -136 226 -24 69 -27 94
-27 204 -1 112 2 134 28 214 62 188 168 291 343 332 128 30 310 3 387 -57 31
-25 61 -80 91 -169 21 -62 23 -65 57 -68 l36 -3 7 143 c3 79 9 151 11 160 4
13 -9 21 -63 37 -183 55 -409 74 -549 47z"/>
<path d="M393 1663 l-393 -3 0 -46 c0 -35 5 -50 23 -64 l22 -18 3 -488 c3
-495 0 -535 -34 -548 -9 -4 -14 -21 -14 -50 l0 -45 478 -3 c262 -2 478 -3 480
-2 4 2 42 307 42 342 0 32 -1 33 -37 30 -37 -3 -38 -5 -64 -75 -40 -108 -75
-162 -117 -181 -47 -20 -394 -30 -458 -13 -64 17 -69 38 -69 286 l0 210 90 3
c120 4 210 -6 236 -27 12 -9 28 -44 38 -81 18 -64 19 -65 54 -68 l37 -3 0 220
0 221 -40 0 c-35 0 -40 -3 -40 -23 0 -43 -32 -118 -57 -134 -18 -12 -59 -17
-168 -21 l-143 -5 -7 74 c-3 41 -5 151 -3 244 l3 170 235 2 c251 3 266 1 301
-47 11 -14 29 -65 42 -115 l22 -90 38 -3 37 -3 0 53 c0 29 3 110 7 181 l6 127
-79 -2 c-43 -2 -256 -4 -471 -5z"/>
<path d="M1291 1440 c-31 -97 -72 -147 -154 -189 -62 -32 -67 -37 -67 -68 l0
-33 69 0 70 0 3 -307 c3 -297 4 -310 25 -350 44 -81 121 -117 236 -111 80 4
137 27 201 81 l40 34 -22 31 -22 30 -51 -34 c-60 -40 -116 -45 -165 -15 -54
33 -59 64 -59 371 l0 275 127 -3 c140 -2 129 -8 143 72 l6 38 -138 -3 -138 -4
0 128 0 127 -41 0 -40 0 -23 -70z"/>
<path d="M2080 1280 c-145 -23 -233 -100 -246 -216 -15 -127 51 -209 234 -288
180 -78 221 -119 209 -208 -14 -104 -141 -146 -260 -86 -42 21 -66 55 -98 140
-20 55 -23 58 -55 58 l-34 0 0 -123 0 -124 51 -16 c85 -28 178 -40 268 -35
130 8 220 54 269 137 22 38 27 58 27 121 0 133 -50 188 -248 277 -66 30 -133
63 -149 74 -56 40 -73 106 -41 160 26 44 73 62 155 57 64 -3 73 -7 99 -36 15
-17 36 -56 44 -87 16 -52 18 -55 49 -55 l33 0 7 61 c3 34 6 83 6 110 l0 47
-67 16 c-92 20 -187 26 -253 16z"/>
<path d="M5395 1279 c-122 -18 -256 -113 -309 -217 -79 -156 -75 -359 8 -490
77 -120 218 -192 376 -192 207 0 366 114 431 307 29 87 24 248 -10 336 -74
189 -271 291 -496 256z m173 -98 c103 -53 156 -177 156 -361 -1 -191 -68 -316
-188 -350 -69 -19 -141 -1 -199 50 -169 149 -147 569 34 658 57 28 145 30 197
3z"/>
<path d="M2520 1231 c0 -25 7 -33 43 -50 28 -14 51 -34 64 -59 18 -31 238
-557 302 -718 l20 -52 -31 -48 c-54 -86 -89 -124 -142 -154 -52 -30 -125 -40
-154 -21 -7 4 -24 41 -36 82 -22 73 -23 74 -57 74 l-34 0 -13 -124 c-10 -100
-10 -126 0 -132 33 -21 153 -32 217 -20 87 16 136 43 201 111 81 84 121 163
310 605 99 231 182 411 196 426 14 15 40 31 57 36 26 7 33 14 35 41 l3 32
-175 0 -176 0 0 -35 c0 -31 3 -35 25 -35 45 0 85 -27 86 -58 0 -28 -201 -542
-212 -542 -6 0 -91 207 -171 419 -21 57 -38 116 -36 130 3 26 31 46 81 56 22
4 27 11 27 35 l0 30 -215 0 -215 0 0 -29z"/></g></g>
</svg>
